PathFileType	4	(X/Y/Z)	C:/Users/cmwille/Documents/OptiTrack/OpenSim_Lab5_04202021/group4_jump_1.trc
DataRate	CameraRate	NumFrames	NumMarkers	Units	OrigDataRate	OrigDataStartFrame	OrigNumFrames
200	200	5	39	m	200	497	994
Frame#	Time	L.ASIS			L.Acromium			L.Ankle.Lat			L.Ankle.Med			L.Heel			L.Knee.Lat			L.Knee.Med			L.Midfoot.Lat			L.Midfoot.Sup			L.Shank.Front			L.Shank.Rear			L.Shank.Upper			L.Thigh.Front			L.Thigh.Rear			L.Thigh.Upper			L.Toe.Lat			L.Toe.Med			L.Toe.Tip			R.ASIS			R.Acromium			R.Ankle.Lat			R.Ankle.Med			R.Heel			R.Knee.Lat			R.Knee.Med			R.Midfoot.Lat			R.Midfoot.Sup			R.Shank.Front			R.Shank.Rear			R.Shank.Upper			R.Thigh.Front			R.Thigh.Rear			R.Thigh.Upper			R.Toe.Lat			R.Toe.Med			R.Toe.Tip			Sternum			Top.Head			V.Sacral			
		X1	Y1	Z1	X2	Y2	Z2	X3	Y3	Z3	X4	Y4	Z4	X5	Y5	Z5	X6	Y6	Z6	X7	Y7	Z7	X8	Y8	Z8	X9	Y9	Z9	X10	Y10	Z10	X11	Y11	Z11	X12	Y12	Z12	X13	Y13	Z13	X14	Y14	Z14	X15	Y15	Z15	X16	Y16	Z16	X17	Y17	Z17	X18	Y18	Z18	X19	Y19	Z19	X20	Y20	Z20	X21	Y21	Z21	X22	Y22	Z22	X23	Y23	Z23	X24	Y24	Z24	X25	Y25	Z25	X26	Y26	Z26	X27	Y27	Z27	X28	Y28	Z28	X29	Y29	Z29	X30	Y30	Z30	X31	Y31	Z31	X32	Y32	Z32	X33	Y33	Z33	X34	Y34	Z34	X35	Y35	Z35	X36	Y36	Z36	X37	Y37	Z37	X38	Y38	Z38	X39	Y39	Z39
497	2.485	0.0782262	0.643679	0.464637	0.40824	0.959661	0.400376	0.0970527	0.114824	0.358708	0.117484	0.12294	0.47345	0.00467555	0.0719347	0.416931	0.342636	0.447267	0.346033	0.350294	0.418742	0.484918	0.130901	0.0457935	0.334935	0.15961	0.0373694	0.467077	0.367981	0.350661	0.395003	0.289665	0.286643	0.36069	0.315107	0.393881	0.340222	0.161557	0.569374	0.357671	0.196203	0.404968	0.38907	0.121883	0.431295	0.393455	0.240365	0.0576446	0.336936	0.23861	0.0487248	0.467261	0.309927	0.0622672	0.40493	0.0442607	0.701402	0.771513	0.409637	0.940095	0.806257	0.0997168	0.124412	0.881092	0.13177	0.12547	0.770293	0.01046	0.0685969	0.814909	0.335701	0.451442	0.893531	0.353106	0.456312	0.742483	0.125651	0.0417966	0.910588	0.169409	0.0388721	0.781812	0.367125	0.382256	0.841534	0.302371	0.296472	0.863706	0.315814	0.399647	0.897584	0.15484	0.624461	0.854423	0.178911	0.456939	0.878278	0.107245	0.476396	0.864268	0.21003	0.0381387	0.931554	0.242218	0.044851	0.796925	0.31286	0.0664561	0.859691	0.376866	0.707285	0.595057	0.686025	1.16151	0.592476	-0.135129	0.714091	0.598899
498	2.49	0.0792975	0.642474	0.464665	0.408076	0.958819	0.400418	0.0973646	0.115016	0.358843	0.117797	0.122945	0.473658	0.00495297	0.0721222	0.417154	0.344018	0.446526	0.346252	0.351904	0.418324	0.485204	0.130983	0.0460049	0.335094	0.159712	0.0372949	0.467104	0.369116	0.349972	0.395255	0.290693	0.286031	0.36104	0.316347	0.393324	0.340435	0.162979	0.568529	0.357925	0.197624	0.404266	0.38896	0.123298	0.430514	0.393418	0.240431	0.0576285	0.337012	0.238687	0.0486624	0.467289	0.310054	0.0620232	0.404924	0.0457464	0.699909	0.771459	0.409581	0.93927	0.806483	0.0997679	0.125034	0.881309	0.132174	0.125419	0.769969	0.0105913	0.0687594	0.814719	0.33733	0.450817	0.893171	0.354581	0.455495	0.741964	0.125679	0.0420125	0.910563	0.169553	0.0387369	0.781771	0.368378	0.381381	0.841119	0.303392	0.295758	0.863319	0.317307	0.399042	0.897193	0.156208	0.62342	0.854569	0.180429	0.455954	0.878049	0.108812	0.475392	0.864159	0.210033	0.0381559	0.93154	0.242358	0.0447278	0.796832	0.313043	0.0661008	0.859768	0.378309	0.70656	0.595234	0.684698	1.16297	0.592628	-0.134092	0.712986	0.598995
499	2.495	0.0803993	0.641403	0.464703	0.407839	0.958266	0.40036	0.0976591	0.115244	0.359018	0.118075	0.122932	0.473841	0.00512012	0.0723976	0.417329	0.345431	0.44587	0.346504	0.353172	0.417614	0.485466	0.131355	0.0451299	0.335052	0.159796	0.0372412	0.467112	0.370191	0.348882	0.395438	0.291652	0.285434	0.361375	0.317712	0.392752	0.34073	0.164239	0.567544	0.358105	0.199061	0.403392	0.38925	0.124758	0.429745	0.39367	0.240492	0.057587	0.337075	0.238758	0.0486239	0.4673	0.310189	0.0617981	0.404924	0.0470101	0.698608	0.771472	0.409433	0.938707	0.806764	0.100207	0.12488	0.880735	0.132561	0.125279	0.769682	0.0105775	0.0694926	0.814898	0.338772	0.449917	0.89281	0.355994	0.454584	0.74152	0.125706	0.0421343	0.910492	0.168395	0.0373511	0.783193	0.369683	0.380526	0.840606	0.304347	0.295153	0.86295	0.318651	0.398309	0.896805	0.157628	0.622563	0.853805	0.181987	0.454949	0.877807	0.110268	0.474422	0.863891	0.21004	0.0381842	0.931527	0.242719	0.0451588	0.797022	0.313229	0.0655439	0.85974	0.379413	0.706087	0.595457	0.68344	1.1647	0.592785	-0.132905	0.711839	0.599023
500	2.5	0.08153	0.64047	0.46475	0.407561	0.958062	0.400344	0.0979811	0.11543	0.35917	0.118363	0.122934	0.473977	0.0052563	0.0726511	0.417486	0.34685	0.445027	0.346774	0.354332	0.4166	0.485657	0.13145	0.0453124	0.335173	0.159883	0.0371835	0.467109	0.371308	0.348169	0.395657	0.292509	0.284985	0.361601	0.318788	0.39198	0.341215	0.165433	0.567095	0.358248	0.200521	0.402677	0.389335	0.126172	0.428783	0.393836	0.240523	0.0576054	0.337111	0.238622	0.0483096	0.466956	0.310317	0.0615424	0.404891	0.0479635	0.697631	0.771594	0.409235	0.938412	0.806996	0.100565	0.124954	0.880505	0.133062	0.125406	0.76927	0.0107494	0.0696931	0.814668	0.340325	0.448938	0.892412	0.357334	0.453702	0.741056	0.125724	0.0422993	0.91039	0.168584	0.037184	0.783179	0.370968	0.37963	0.840225	0.305284	0.294358	0.862524	0.319966	0.397424	0.896352	0.159175	0.621539	0.854013	0.183495	0.45404	0.877555	0.111894	0.473385	0.863759	0.210048	0.0381912	0.931502	0.242795	0.0451299	0.797072	0.31341	0.0652258	0.859826	0.380701	0.706082	0.595647	0.681961	1.16672	0.593089	-0.13154	0.710881	0.599192
501	2.505	0.082688	0.639681	0.464806	0.407233	0.958182	0.400339	0.098243	0.115593	0.359332	0.118746	0.122996	0.474099	0.00537919	0.0729009	0.417629	0.348111	0.44438	0.346964	0.355395	0.415589	0.485869	0.131494	0.0454892	0.335295	0.159971	0.0371102	0.467096	0.372324	0.347485	0.395947	0.29348	0.284373	0.361841	0.320132	0.391457	0.341117	0.167266	0.56616	0.358345	0.201825	0.402088	0.389285	0.127469	0.428246	0.393747	0.240571	0.0575774	0.337132	0.238916	0.0485861	0.467302	0.310433	0.0613356	0.404893	0.0488072	0.696887	0.771782	0.408977	0.93843	0.807208	0.100899	0.125016	0.880248	0.133363	0.125196	0.769001	0.0109089	0.0698576	0.814462	0.341739	0.448064	0.892076	0.358653	0.452774	0.740705	0.12575	0.0424378	0.91029	0.168696	0.0369793	0.783174	0.372216	0.378757	0.839858	0.306211	0.293617	0.862173	0.321267	0.396563	0.896097	0.160801	0.620379	0.853946	0.185071	0.453113	0.87732	0.113306	0.472483	0.863517	0.210037	0.0382409	0.931479	0.242856	0.0451076	0.797142	0.313571	0.0649798	0.859949	0.381986	0.706249	0.595934	0.680637	1.16919	0.593218	-0.130336	0.710169	0.599277
